<svg xmlns="http://www.w3.org/2000/svg" id="draw.id" overflow="visible" v:ver="3" v:layers="{&quot;default&quot;:{&quot;name&quot;:&quot;Default&quot;,&quot;print&quot;:0,&quot;display&quot;:1,&quot;publish&quot;:0}}" x="500.5" y="500.5" fill="hsla(240,8%,12%,1)" stroke="hsla(0,0%,75%,1)" v:stencils="{&quot;0&quot;:{&quot;id&quot;:&quot;stencil_1&quot;,&quot;expand&quot;:1,&quot;show_name&quot;:1},&quot;1&quot;:{&quot;id&quot;:&quot;stencil_0&quot;,&quot;expand&quot;:0,&quot;show_name&quot;:1}}" xmlns:v="http://vecta.io"><style xmlns="http://www.w3.org/1999/xhtml"><![CDATA[#draw\.id{stroke:#000;stroke-linecap:round;stroke-linejoin:round;fill:#fff;fill-rule:evenodd;font-family:Roboto;font-size:14px;text-anchor:middle}#draw\.id text{paint-order:stroke;white-space:pre}#draw\.id .Text\.cls{stroke:none}]]></style><defs><style type="text/css">@import url('https://fonts.googleapis.com/css?family=Roboto+Condensed:400,400i,700,700i');@import url('https://fonts.googleapis.com/css?family=Roboto:400,400i,700,700i');@import url('https://fonts.googleapis.com/css?family=Cousine:400,400i,700,700i');@import url('https://fonts.googleapis.com/css?family=Anonymous+Pro:400,400i,700,700i');@import url('https://fonts.googleapis.com/css?family=Lato:400,400i,700,700i');@import url('https://fonts.googleapis.com/css?family=Open+Sans:400,400i,700,700i');</style><linearGradient id="L00100100000aaff10000387f.grad" x1="0%" y1="0%" x2="100%" y2="100%"><stop offset="0%" stop-color="#00aaff" stop-opacity="1"/><stop offset="100%" stop-color="#00387f" stop-opacity="1"/></linearGradient><linearGradient id="L00100100000aaff10010000387f100.grad" x1="0%" y1="0%" x2="100%" y2="100%"><stop offset="0%" stop-color="#00aaff" stop-opacity="1"/><stop offset="100%" stop-color="#00387f" stop-opacity="1"/></linearGradient><linearGradient id="L001001000808080100000000.grad" x1="0%" y1="0%" x2="100%" y2="100%"><stop offset="0%" stop-color="#808080" stop-opacity="1"/><stop offset="100%" stop-color="#000000" stop-opacity="1"/></linearGradient><linearGradient id="L001001000808080100100000000100.grad" x1="0%" y1="0%" x2="100%" y2="100%"><stop offset="0%" stop-color="#808080" stop-opacity="1"/><stop offset="100%" stop-color="#000000" stop-opacity="1"/></linearGradient><linearGradient id="L001001000f1a9eb100672965.grad" x1="0%" y1="0%" x2="100%" y2="100%"><stop offset="0%" stop-color="#f1a9eb" stop-opacity="1"/><stop offset="100%" stop-color="#672965" stop-opacity="1"/></linearGradient><linearGradient id="L001001000ffd194100d1913c.grad" x1="0%" y1="0%" x2="100%" y2="100%"><stop offset="0%" stop-color="#ffd194"/><stop offset="100%" stop-color="#d1913c"/></linearGradient><linearGradient id="L06710033090a4ae100ECEFF1.grad" x1="0%" y1="67%" x2="100%" y2="33%"><stop offset="0%" stop-color="#90a4ae"/><stop offset="100%" stop-color="#ECEFF1"/></linearGradient><linearGradient id="L0941006090a4ae100B0BEC5.grad" x1="0%" y1="94%" x2="100%" y2="6%"><stop offset="0%" stop-color="#90a4ae"/><stop offset="100%" stop-color="#B0BEC5"/></linearGradient><linearGradient id="L100100000578fff1008ab1ff.grad" x1="100%" y1="100%" x2="0%" y2="0%"><stop offset="0%" stop-color="#578fff"/><stop offset="100%" stop-color="#8ab1ff"/></linearGradient><linearGradient id="L10010000057c7ff1008ad8ff.grad" x1="100%" y1="100%" x2="0%" y2="0%"><stop offset="0%" stop-color="#57c7ff"/><stop offset="100%" stop-color="#8ad8ff"/></linearGradient><linearGradient id="L10010000057ffff1008affff.grad" x1="100%" y1="100%" x2="0%" y2="0%"><stop offset="0%" stop-color="#57ffff"/><stop offset="100%" stop-color="#8affff"/></linearGradient><linearGradient id="L1001000008fff57100b1ff8a.grad" x1="100%" y1="100%" x2="0%" y2="0%"><stop offset="0%" stop-color="#8fff57"/><stop offset="100%" stop-color="#b1ff8a"/></linearGradient><linearGradient id="L100100000c757ff100d88aff.grad" x1="100%" y1="100%" x2="0%" y2="0%"><stop offset="0%" stop-color="#c757ff"/><stop offset="100%" stop-color="#d88aff"/></linearGradient><linearGradient id="L100100000c7ff57100d8ff8a.grad" x1="100%" y1="100%" x2="0%" y2="0%"><stop offset="0%" stop-color="#c7ff57"/><stop offset="100%" stop-color="#d8ff8a"/></linearGradient><linearGradient id="L100100000ff578f100ff8ab1.grad" x1="100%" y1="100%" x2="0%" y2="0%"><stop offset="0%" stop-color="#ff578f"/><stop offset="100%" stop-color="#ff8ab1"/></linearGradient><linearGradient id="L100100000ff57e3100ff8aeb.grad" x1="100%" y1="100%" x2="0%" y2="0%"><stop offset="0%" stop-color="#ff57e3"/><stop offset="100%" stop-color="#ff8aeb"/></linearGradient><linearGradient id="L100100000ff7357100ff9d8a.grad" x1="100%" y1="100%" x2="0%" y2="0%"><stop offset="0%" stop-color="#ff7357"/><stop offset="100%" stop-color="#ff9d8a"/></linearGradient><linearGradient id="L100100000ffab57100ffc48a.grad" x1="100%" y1="100%" x2="0%" y2="0%"><stop offset="0%" stop-color="#ffab57"/><stop offset="100%" stop-color="#ffc48a"/></linearGradient><linearGradient id="L100100000ffe357100ffeb8a.grad" x1="100%" y1="100%" x2="0%" y2="0%"><stop offset="0%" stop-color="#ffe357"/><stop offset="100%" stop-color="#ffeb8a"/></linearGradient><linearGradient id="L100100000ffff57100ffff8a.grad" x1="100%" y1="100%" x2="0%" y2="0%"><stop offset="0%" stop-color="#ffff57"/><stop offset="100%" stop-color="#ffff8a"/></linearGradient><linearGradient id="L170831000E0E0E0100757575.grad" x1="17%" y1="0%" x2="83%" y2="100%"><stop offset="0%" stop-color="#E0E0E0"/><stop offset="100%" stop-color="#757575"/></linearGradient><linearGradient id="L5005010004387FD1004683EA.grad" x1="50%" y1="0%" x2="50%" y2="100%"><stop offset="0%" stop-color="#4387FD"/><stop offset="100%" stop-color="#4683EA"/></linearGradient><linearGradient id="L611003900000000100100808080100.grad" x1="61%" y1="100%" x2="39%" y2="0%"><stop offset="0%" stop-color="#000000" stop-opacity="1"/><stop offset="100%" stop-color="#808080" stop-opacity="1"/></linearGradient><clipPath id="jw8nw00y2b8.clip"><path d="M 0 15 C 0 6.69 6.69 0 15 0 L 399 0 C 407.31 0 414 6.69 414 15 L 414 813 C 414 821.31 407.31 828 399 828 L 15 828 C 6.69 828 0 821.31 0 813 Z" stroke="hsla(0,0%,100%,1)" stroke-width="1" transform="translate(0 0)"/></clipPath><clipPath id="jw8nwu5f2en.clip"><path d="M 480 947.0445 C 480 966 463.5 986 440.1188 986 L 40.1346 986 C 10 986 0 960 0 949.9712 L 0 39.7345 C 0 16 20 0 39.7865 0 L 130.3007 0 C 139.25 0 145 7.75 145 14.1357 L 145 14 C 145 30.62 158.38 44 175 44 L 305 44 C 321.62 44 335 30.62 335 14 L 335 13.8857 C 335 8.75 340 0 349.9493 0 L 439.7751 0 C 464.5 0 480 20.5 480 39.9367 Z" stroke="hsla(0,0%,100%,1)" stroke-width="1" transform="translate(0 0)"/></clipPath><clipPath id="jw8nxjem3h1.clip"><path d="M 0 40 C 0 17.84 17.84 0 40 0 L 374 0 C 396.16 0 414 17.84 414 40 L 414 834 C 414 856.16 396.16 874 374 874 L 40 874 C 17.84 874 0 856.16 0 834 Z" stroke="hsla(0,0%,100%,1)" transform="translate(1.1517835812563817 3)"/></clipPath><clipPath id="jw8ny4f43i0.clip"><path d="M 0 40 C 0 17.84 17.84 0 40 0 L 440 0 C 462.16 0 480 17.84 480 40 L 480 973 C 480 995.16 462.16 1013 440 1013 L 40 1013 C 17.84 1013 0 995.16 0 973 Z" stroke="hsla(0,0%,100%,1)" stroke-width="1" transform="translate(6 8.642899999999997)"/></clipPath><clipPath id="jw8o1udg4wt.clip"><path d="M 43.54657451923149 0 L 149.36523437499966 0 C 180.34197716346247 0 180.34197716346247 30.062344341105906 206.68347355769168 30.062344341105906 C 233.02496995192348 30.062344341105906 233.02496995192348 0 264.0775615985576 0 L 375.48191105769286 0 C 390.62403846153893 0 396.11487379807704 1.5754000230444005 401.65063100961584 4.533742296454201 C 407.18638822115395 7.4920414082198015 411.530851862981 11.833239608706302 414.4913762019235 17.364835963593304 C 417.45190054086584 22.896389156836005 419.02848557692346 28.383140563119007 419.02848557692346 43.51388664745901 L 419.02848557692346 839.0223144317017 C 419.02848557692346 854.1529741927511 417.45190054086584 859.6397687606808 414.4913762019235 865.171365115567 C 411.530851862981 870.7028751471631 407.18638822115395 875.0440733476512 401.65063100961584 878.0024587827053 C 396.11487379807704 880.9607578944717 390.62403846153893 882.5361579175152 375.48191105769286 882.5361579175152 L 43.54657451923149 882.5361579175152 C 28.404447115384198 882.5361579175152 22.913611778847397 880.9607578944717 17.377854567307896 878.0024587827053 C 11.842097355768498 875.0440733476512 7.497633713942099 870.7028751471631 4.537109374999999 865.171365115567 C 1.5765850360578997 859.6397687606808 0 854.1529741927511 0 839.0223144317017 L 0 43.51388664745901 C 0 28.383140563119007 1.5765850360578997 22.896389156836005 4.537109374999999 17.364835963593304 C 7.497633713942099 11.833239608706302 11.842097355768498 7.4920414082198015 17.377854567307896 4.533742296454201 C 22.913611778847397 1.5754000230444005 28.404447115384198 0 43.54657451923149 0 Z" fill="hsla(0,0%,20%,1)" stroke="none" transform="translate(0 0)"/></clipPath><clipPath id="jw8pi2jcloi.clip"><path d="M 335.8927317333333 814.0000000000001 C 362.464 814.0000000000001 376 790.972109720438 376 774.0900697557959 L 376 39.9095124786729 C 376 15.5326649749132 354.944 0.0138998239484 336.1203370666667 0.0138998239484 L 298.2586410666667 0.0138998239484 C 296.288 0.0138998239484 292.7786666666667 2.3917210306186 292.7943082666667 5.7074945327155 C 292.7786666666667 7.1475636899658 292.7786666666667 8.3184020911954 292.7786666666667 10.0259999134094 C 292.7786666666667 21.1194284391008 283.83488 30.0503002153345 272.7253333333333 30.0503002153345 L 103.2746666666667 30.0503002153345 C 92.16512 30.0503002153345 83.2213333333333 21.1194284391008 83.2213333333333 10.0259999134094 C 83.2213333333333 7.9584598941353 83.2213333333333 8.5241548630892 83.2320618666667 6.3454783100915 C 83.2213333333333 2.0162597680386 79.8373333333333 0.0138998239484 77.4965077333333 0.0138998239484 L 39.9373162666667 0.0138998239484 C 23.0613333333333 -0.4867151928249 0 12.5290749972763 0 40.0629009198122 L 0 774.0901698787992 C 0 797.9806198322619 19.552 814.0000000000001 40.107168 814.0000000000001 Z" stroke="hsla(0,0%,100%,1)" stroke-width="1" transform="translate(1.6289867642501576 1)"/></clipPath><clipPath id="jw8pmnlrt78.clip"><path d="M 369.8393 895.9999976352831 C 399.096 895.9999976352831 414 870.652297635283 414 852.0696976352831 L 414 43.9298976352831 C 414 17.097397635283 390.816 0.015297635283 370.0899 0.015297635283 L 328.4018 0.015297635283 C 326.232 0.015297635283 322.368 2.632697635283 322.3852 6.282497635283 C 322.368 7.867597635283 322.368 9.156397635283 322.368 11.035997635283 C 322.368 23.246897635283 312.5203 33.0774976352831 300.288 33.0774976352831 L 113.712 33.0774976352831 C 101.4797 33.0774976352831 91.632 23.246897635283 91.632 11.035997635283 C 91.632 8.760197635283 91.632 9.382897635283 91.6438 6.984697635283 C 91.632 2.219397635283 87.906 0.015297635283 85.3286 0.015297635283 L 43.9735 0.015297635283 C 25.392 -0.535702364717 0 13.791197635283 0 44.0986976352831 L 0 852.0697976352831 C 0 878.3668976352831 21.528 895.9999976352831 44.1606 895.9999976352831 Z" stroke="hsla(0,0%,100%,1)" stroke-width="1" transform="translate(0.9199223449481906 1.0000011823585737)"/></clipPath><clipPath id="jw8uzo6nb9b.clip"><rect x="0" y="0" width="480" height="1040" stroke-width="0.2" stroke="none" rx="40" class="" transform="translate(0.999964282226756 1.16666664971126)"/></clipPath><clipPath id="jwpugewnio.clip"><path d="M 0 0 L 375 0 L 375 667 L 0 667 Z" fill="hsla(240,8%,12%,1)" fill-opacity="1" stroke="hsla(0,0%,75%,1)" stroke-linejoin="miter" stroke-width="1" transform="translate(146.49997790527343 1)"/></clipPath><clipPath id="jwpuhbtxk8.clip"><path d="M 0 0 L 414 0 L 414 736 L 0 736 Z" stroke="hsla(0,0%,75%,1)" stroke-linejoin="miter" stroke-width="1" transform="translate(161.99995786132808 1)"/></clipPath><g id="many.end"><path d="M -5 0 L 0 7.5 L 5 0" fill="none"/></g></defs><title xmlns="http://www.w3.org/1999/xhtml">Untitled drawing</title><desc xmlns="http://www.w3.org/1999/xhtml"></desc><svg id="kytuzhiq16m" width="1122.5197162628174" height="793.7008094787598" viewBox="0 0 1122.5197162628174 793.7008094787598" overflow="visible" v:setup="{&quot;paper&quot;:&quot;CUSTOM&quot;,&quot;unit&quot;:&quot;px&quot;,&quot;scale&quot;:{&quot;from&quot;:&quot;1&quot;,&quot;to&quot;:&quot;1&quot;},&quot;width&quot;:&quot;297mm&quot;,&quot;height&quot;:&quot;210mm&quot;,&quot;margin&quot;:{&quot;top&quot;:&quot;0&quot;,&quot;bottom&quot;:&quot;0&quot;,&quot;left&quot;:&quot;0&quot;,&quot;right&quot;:&quot;0&quot;}}" zoom="{&quot;level&quot;:1,&quot;scroll_x&quot;:76,&quot;scroll_y&quot;:418}" style="display: block;"><g id="kzg3bftpm3" transform="translate(0.001223961855146144 0.00010745772431163675)" class="NoPrint.cls"><path d="M 32.498629246080355 0.0880644733469888 C 24.142256469815635 0.7093081453323689 16.52082899240849 4.145874910422342 10.535721273407912 9.99198091347422 C 2.664883710022763 17.670123540239057 -1.1097136323975914 28.542021029412837 0.28487327768820847 39.46313744175657 C 2.0272724329414094 53.117530256718496 11.656798247130785 64.49035801468261 24.883810868917262 68.51318772815121 C 35.11055901425206 71.62818459467267 46.49236425476657 69.77974105477121 55.16270267191848 63.610980477023716 C 65.81603819664282 56.02035565873447 71.35820268211447 43.43125952833546 69.71320430722581 30.543572491549266 C 67.97080515197261 16.889180719670527 58.34121257919493 5.5163529617064135 45.114199957408445 1.493523117852412 C 41.17771303830269 0.2893044097749133 36.5871922293879 -0.22038774147170148 32.498629246080355 0.0880644733469888 Z M 35.167437331504004 21.77715092840522 C 36.957969428938725 21.954341555216715 37.85380292565683 22.236541452433965 38.256290454661496 22.761537736469865 C 38.411036862396244 23.00935761190774 38.53554162962027 23.274851488833164 38.62706765421231 23.552311616057526 C 38.83709017307922 24.16481006232124 38.845835548149644 24.867013662499602 38.714588163504914 30.109366167940465 C 38.63360999586805 33.38404655309545 38.68174293804957 34.39249937640567 38.948643774168424 35.118754388664996 C 39.26361079388048 35.94999989583276 39.95709900938891 36.328430475370354 40.56960905726049 36.015622345170875 C 41.127443821294804 35.72577873437355 42.42462995101607 34.29843830711024 43.271195609551164 33.0318682911593 C 45.23129452132853 30.12795808263087 46.424537529029514 27.878102754458702 47.86071503964109 24.391217526136323 C 48.15051407155504 23.70543622762346 48.538848779835035 23.25372279583671 48.94133630883969 23.148730214761915 C 49.102090989523596 23.10059818427078 51.38483415867025 23.061228052534105 54.19143197039438 23.05246615377965 L 59.15172860003513 23.03606054144512 L 59.57063874176745 23.213251168256615 C 60.11098275566092 23.453877942050354 60.32093851593952 23.77107536629254 60.32093851593952 24.342000689132735 C 60.32093851593952 25.430295271759725 59.183438929488965 27.66482979410982 57.23215215137035 30.399209778737795 C 56.966386211252996 30.778741854118802 55.957864217444175 32.11639173063206 54.9975419244052 33.382961746583 C 52.875620194530754 36.17203475493609 52.41625434827416 36.828275937648236 52.09361009090485 37.50422722022515 C 51.68891952848551 38.35953874263847 51.787321687674904 39.06062415764245 52.4239315859314 39.89188635414117 C 52.6098542544134 40.125937531536316 53.545008559654285 41.069852712020875 54.50426271528007 41.98860038141645 C 57.19056155084458 44.561110545054994 58.40903930493199 45.91516603390279 59.400003790011624 47.40048311075777 C 60.11098275566092 48.472372081050224 60.38442593343552 49.26314596063789 60.27066929893164 49.941266856239714 C 60.213790981679686 50.313155218040656 59.844081919542056 50.756123440403904 59.42403688180822 50.97376900546453 C 58.92421533102735 51.225343980368606 58.15749294412761 51.27237451501632 53.93988560959001 51.32815025908752 L 49.947588510645495 51.38502749900215 L 49.29135158742178 51.166280438098106 C 47.64628645394479 50.61940444117251 46.549242572018514 49.706114183001134 44.056543642593255 46.81860958680724 C 42.67837934523513 45.22174102180985 41.65356825587529 44.43969566231471 40.94365742763918 44.430950452891224 C 40.29069167524333 44.430950452891224 39.45941373343441 45.30158278112662 39.106127284024446 46.38330176735503 C 38.86552933170519 47.10955469344798 38.7758057889979 47.66517589979708 38.7014367216051 48.924085512836974 C 38.613916212312496 50.408301093848536 38.43567078148775 50.7550219445605 37.523481430630284 51.133469213429045 C 37.19315993560374 51.27893342208394 33.07942896449809 51.32706545257507 31.988927424227537 51.21439577925827 C 29.803585035445412 50.97376900546453 27.777929189934 50.286902900439216 25.770832231976627 49.10127613964847 C 22.859223160819035 47.39173790133428 21.076368301041562 45.85939028983158 19.16446909003404 43.42470062126784 C 15.841560356213042 39.18093754453932 13.586254966867491 35.56936632460833 10.82445216790868 30.11700988152054 C 9.760186752849428 27.99514503248724 8.5100654278965 25.25310464494823 8.30878828410001 24.60013457110442 C 8.107511140303519 23.921996986171628 8.396308793392611 23.366375779822544 9.059088058272069 23.15637392834199 C 9.284398293865152 23.084192571936253 10.543331752476835 23.043720944356156 13.445127311150813 23.00324931677606 L 17.518335819143868 22.962777689195967 L 17.99412427812814 23.13996831600746 C 18.744490810888525 23.429811926804785 19.058389693187394 23.80170028860572 19.566956619038695 25.035442390556636 C 20.0022893734987 26.074503446849082 22.34952133896623 30.78638556769888 23.083465258998938 32.101087614140944 C 23.833765033170994 33.432178583586584 24.632264508112893 34.54452249212817 25.318008727375766 35.20734135740526 C 26.16464114449918 36.03858686457302 26.543095581707234 36.23984350663008 27.141386050265826 36.19171147613895 C 27.649952976117127 36.14359613497878 27.797622973489542 36.03094315099295 28.1017083433048 35.34516185248007 C 28.867362592791352 33.69139727207072 28.987661568950983 28.10232391591791 28.302918728512967 25.908261021147908 C 27.909176574578744 24.658096617531502 27.318563343677397 24.18231717049919 25.688852685514902 23.835596319787236 C 25.406664132669874 23.769973870449117 25.406664132669874 23.67481130531027 25.66475283512998 23.29527922992926 C 26.293685495729232 22.391852366355764 27.414829228040432 21.95652785757259 29.55203867464104 21.779337230761094 C 30.722383486546935 21.683089859109785 34.18962428832417 21.674344649686297 35.14994658136315 21.771693517181017 Z" stroke="none" stroke-linejoin="miter" stroke-linecap="butt" fill="#45668e" fill-rule="nonzero" stroke-width="0.9999999914850835"/></g></svg><svg id="kytuzhov16y" width="898.015773010254" height="634.9606475830078" viewBox="0 0 1122.5197162628174 793.7008094787598" overflow="visible" v:setup="{&quot;paper&quot;:&quot;CUSTOM&quot;,&quot;unit&quot;:&quot;px&quot;,&quot;scale&quot;:{&quot;from&quot;:&quot;1&quot;,&quot;to&quot;:&quot;1&quot;},&quot;width&quot;:&quot;297mm&quot;,&quot;height&quot;:&quot;210mm&quot;,&quot;margin&quot;:{&quot;top&quot;:&quot;0&quot;,&quot;bottom&quot;:&quot;0&quot;,&quot;left&quot;:&quot;0&quot;,&quot;right&quot;:&quot;0&quot;}}" zoom="{&quot;level&quot;:1,&quot;scroll_x&quot;:76,&quot;scroll_y&quot;:418}" style="display: none;"/><svg id="kytuzhsr17a" width="898.015773010254" height="634.9606475830078" viewBox="0 0 1122.5197162628174 793.7008094787598" overflow="visible" v:setup="{&quot;paper&quot;:&quot;CUSTOM&quot;,&quot;unit&quot;:&quot;px&quot;,&quot;scale&quot;:{&quot;from&quot;:&quot;1&quot;,&quot;to&quot;:&quot;1&quot;},&quot;width&quot;:&quot;297mm&quot;,&quot;height&quot;:&quot;210mm&quot;,&quot;margin&quot;:{&quot;top&quot;:&quot;0&quot;,&quot;bottom&quot;:&quot;0&quot;,&quot;left&quot;:&quot;0&quot;,&quot;right&quot;:&quot;0&quot;}}" zoom="{&quot;level&quot;:1,&quot;scroll_x&quot;:76,&quot;scroll_y&quot;:418}" style="display: none;"/><svg id="kyx3hfcip5" width="561.2598581314087" height="396.8504047393799" viewBox="0 0 1122.5197162628174 793.7008094787598" overflow="visible" v:setup="{&quot;paper&quot;:&quot;CUSTOM&quot;,&quot;unit&quot;:&quot;px&quot;,&quot;scale&quot;:{&quot;from&quot;:&quot;1&quot;,&quot;to&quot;:&quot;1&quot;},&quot;width&quot;:&quot;297mm&quot;,&quot;height&quot;:&quot;210mm&quot;,&quot;margin&quot;:{&quot;top&quot;:&quot;0&quot;,&quot;bottom&quot;:&quot;0&quot;,&quot;left&quot;:&quot;0&quot;,&quot;right&quot;:&quot;0&quot;}}" zoom="{&quot;level&quot;:1,&quot;scroll_x&quot;:76,&quot;scroll_y&quot;:418}" style="display: none;"/><svg id="kyx3hg5kqb" width="1122.5197162628174" height="793.7008094787598" viewBox="0 0 1122.5197162628174 793.7008094787598" overflow="visible" v:setup="{&quot;paper&quot;:&quot;CUSTOM&quot;,&quot;unit&quot;:&quot;px&quot;,&quot;scale&quot;:{&quot;from&quot;:&quot;1&quot;,&quot;to&quot;:&quot;1&quot;},&quot;width&quot;:&quot;297mm&quot;,&quot;height&quot;:&quot;210mm&quot;,&quot;margin&quot;:{&quot;top&quot;:&quot;0&quot;,&quot;bottom&quot;:&quot;0&quot;,&quot;left&quot;:&quot;0&quot;,&quot;right&quot;:&quot;0&quot;}}" style="display: none;" zoom="{&quot;level&quot;:1,&quot;scroll_x&quot;:69,&quot;scroll_y&quot;:411}"/></svg>